<?xml version="1.0" encoding="iso-8859-1"?>
<!-- Generator: Adobe Illustrator 19.0.0, SVG Export Plug-In . SVG Version: 6.00 Build 0)  -->
<svg version="1.1" id="Layer_1" xmlns="http://www.w3.org/2000/svg" xmlns:xlink="http://www.w3.org/1999/xlink" x="0px" y="0px"
	 viewBox="0 0 476.944 476.944" style="enable-background:new 0 0 476.944 476.944; fill: #eb7171;" xml:space="preserve">
<g>
	<path d="M84.176,379.875c-26.762,0-48.534,21.772-48.534,48.534s21.772,48.534,48.534,48.534s48.534-21.772,48.534-48.534
		S110.938,379.875,84.176,379.875z M84.176,446.944c-10.22,0-18.534-8.314-18.534-18.534s8.314-18.534,18.534-18.534
		s18.534,8.314,18.534,18.534S94.396,446.944,84.176,446.944z"/>
	<path d="M474.945,30V0h-61.624l-9.835,60H1.999l28.735,175.879c4.043,24.671,26.794,43.996,51.794,43.996h143.013
		c4.5,15.021,9.994,28.312,16.035,40H50.642v30h209.85c5.713,7.506,11.479,13.974,17.002,19.468
		c10.804,10.747,21.551,18.794,30.951,24.724c-8.813,8.792-14.274,20.941-14.274,34.343c0,26.762,21.772,48.534,48.535,48.534
		c26.762,0,48.534-21.772,48.534-48.534c0-13.402-5.461-25.551-14.273-34.343c9.4-5.93,20.147-13.977,30.952-24.724
		c27.179-27.036,60.283-77.207,63.641-162.683l0.723-18.39l-18.157,3.002c-14.023,2.318-28.053,1.862-41.565-1.164L438.804,30
		H474.945z M342.707,446.944c-10.221,0-18.535-8.314-18.535-18.534c0-10.132,8.175-18.38,18.275-18.521l0.26,0.078l0.26-0.078
		c10.099,0.141,18.274,8.389,18.274,18.521C361.241,438.63,352.927,446.944,342.707,446.944z M440.452,222.638
		c-4.881,52.039-22.518,93.792-52.541,124.281c-18.579,18.867-37.034,27.976-45.204,31.384c-8.17-3.407-26.625-12.517-45.204-31.384
		c-30.021-30.487-47.658-72.237-52.54-124.271c17.232,0.471,34.545-2.267,50.939-8.131c16.878-6.036,32.832-15.381,46.805-27.344
		c26.838,22.968,60.269,35.514,94.137,35.512C438.045,222.686,439.25,222.67,440.452,222.638z M353.509,156.173l-10.802-11.211
		l-10.802,11.211c-27.324,28.359-63.996,41.152-100.617,35.099l-18.157-3.002l0.723,18.389c0.611,15.555,2.217,29.926,4.583,43.216
		H82.528c-10.175,0-20.543-8.807-22.188-18.841L37.298,90h361.271l-14.651,89.382C372.962,173.489,362.704,165.717,353.509,156.173z
		"/>
</g>
<g>
</g>
<g>
</g>
<g>
</g>
<g>
</g>
<g>
</g>
<g>
</g>
<g>
</g>
<g>
</g>
<g>
</g>
<g>
</g>
<g>
</g>
<g>
</g>
<g>
</g>
<g>
</g>
<g>
</g>
</svg>
