<?xml version="1.0" encoding="iso-8859-1"?>
<!-- Generator: Adobe Illustrator 19.0.0, SVG Export Plug-In . SVG Version: 6.00 Build 0)  -->
<svg version="1.1" id="Layer_1" xmlns="http://www.w3.org/2000/svg" xmlns:xlink="http://www.w3.org/1999/xlink" x="0px" y="0px"
	 viewBox="0 0 485 485" style="enable-background:new 0 0 485 485; fill: #eb7171;" xml:space="preserve">
<g>
	<polygon points="130.98,240.042 145.904,240.042 145.904,214.563 169.747,214.563 169.747,202.459 145.904,202.459 
		145.904,188.536 174.842,188.536 174.842,175.432 130.98,175.432 	"/>
	<path d="M231.397,212.696c1.304-1.304,2.412-2.775,3.322-4.413c0.91-1.639,1.606-3.381,2.093-5.232
		c0.485-1.85,0.728-3.777,0.728-5.779c0-2.668-0.532-5.307-1.592-7.916c-1.063-2.608-2.534-4.944-4.414-7.008
		c-1.881-2.062-4.111-3.73-6.688-5.005c-2.58-1.274-5.385-1.911-8.417-1.911h-29.12v64.61h14.924v-20.839h9.737l12.376,20.839
		h16.835l-14.196-24.024C228.622,215.107,230.092,214.002,231.397,212.696z M220.432,203.688c-1.274,1.67-2.791,2.502-4.55,2.502
		h-13.65v-17.653h13.195c1.698,0,3.276,0.789,4.732,2.366c1.456,1.578,2.184,3.701,2.184,6.369
		C222.343,199.881,221.706,202.02,220.432,203.688z"/>
	<polygon points="267.752,213.197 293.231,213.197 293.231,201.094 267.752,201.094 267.752,188.536 297.418,188.536 
		297.418,175.432 252.828,175.432 252.828,240.042 298.236,240.042 298.236,226.938 267.752,226.938 	"/>
	<polygon points="326.812,213.197 352.291,213.197 352.291,201.094 326.812,201.094 326.812,188.536 356.478,188.536 
		356.478,175.432 311.888,175.432 311.888,240.042 357.296,240.042 357.296,226.938 326.812,226.938 	"/>
	<path d="M485,200.934L374.235,65.02H0v295.402h51.284c1.811,33.146,29.344,59.559,62.935,59.559s61.124-26.412,62.935-59.559
		h130.693c1.811,33.146,29.344,59.559,62.935,59.559s61.124-26.412,62.935-59.559H485V200.934z M114.219,389.98
		c-18.216,0-33.035-14.819-33.035-33.035s14.819-33.035,33.035-33.035s33.035,14.819,33.035,33.035S132.435,389.98,114.219,389.98z
		 M370.781,389.98c-18.216,0-33.035-14.819-33.035-33.035s14.819-33.035,33.035-33.035s33.035,14.819,33.035,33.035
		S388.997,389.98,370.781,389.98z M455,330.422h-27.055c-10.034-21.539-31.877-36.512-57.163-36.512s-47.129,14.973-57.163,36.512
		H171.382c-10.034-21.539-31.877-36.512-57.163-36.512s-47.129,14.973-57.163,36.512H30V95.02h329.983L455,211.609V330.422z"/>
</g>
<g>
</g>
<g>
</g>
<g>
</g>
<g>
</g>
<g>
</g>
<g>
</g>
<g>
</g>
<g>
</g>
<g>
</g>
<g>
</g>
<g>
</g>
<g>
</g>
<g>
</g>
<g>
</g>
<g>
</g>
</svg>
