<?xml version="1.0" encoding="iso-8859-1"?>
<!-- Generator: Adobe Illustrator 18.0.0, SVG Export Plug-In . SVG Version: 6.00 Build 0)  -->
<!DOCTYPE svg PUBLIC "-//W3C//DTD SVG 1.1//EN" "http://www.w3.org/Graphics/SVG/1.1/DTD/svg11.dtd">
<svg version="1.1" id="Capa_1" xmlns="http://www.w3.org/2000/svg" xmlns:xlink="http://www.w3.org/1999/xlink" x="0px" y="0px"
	 viewBox="0 0 211.617 211.617" style="enable-background:new 0 0 211.617 211.617; fill: #eb7171;" xml:space="preserve">
<path d="M56.283,155.334h99.051V56.283H56.283V155.334z M76.283,76.283h59.051v59.051H76.283V76.283z M0,145.809v20h20.809v25h25
	v20.809h20v-20.809h30v20.809h20v-20.809h30v20.809h20v-20.809h25v-25h20.809v-20h-20.809v-30h20.809v-20h-20.809v-30h20.809v-20
	h-20.809v-25h-25V0h-20v20.809h-30V0h-20v20.809h-30V0h-20v20.809h-25v25H0v20h20.809v30H0v20h20.809v30H0z M40.809,40.809h130v130
	h-130V40.809z"/>
<g>
</g>
<g>
</g>
<g>
</g>
<g>
</g>
<g>
</g>
<g>
</g>
<g>
</g>
<g>
</g>
<g>
</g>
<g>
</g>
<g>
</g>
<g>
</g>
<g>
</g>
<g>
</g>
<g>
</g>
</svg>
