<?xml version="1.0" encoding="iso-8859-1"?>
<!-- Generator: Adobe Illustrator 19.0.0, SVG Export Plug-In . SVG Version: 6.00 Build 0)  -->
<svg version="1.1" id="Layer_1" xmlns="http://www.w3.org/2000/svg" xmlns:xlink="http://www.w3.org/1999/xlink" x="0px" y="0px"
	 viewBox="0 0 482.555 482.555" style="enable-background:new 0 0 482.555 482.555; fill: #eb7171;" xml:space="preserve">
<g>
	<path d="M212.5,106.226c-37.22,0-67.5,30.28-67.5,67.5s30.28,67.5,67.5,67.5s67.5-30.28,67.5-67.5S249.72,106.226,212.5,106.226z
		 M212.5,211.226c-20.678,0-37.5-16.822-37.5-37.5s16.822-37.5,37.5-37.5s37.5,16.822,37.5,37.5S233.178,211.226,212.5,211.226z"/>
	<path d="M447.346,278.675V243.93c0-18.691-8.744-35.367-22.346-46.187V38.777H0v269.898h294.114v135.102h188.441V278.675H447.346z
		 M359.323,278.675V243.93c0-15.997,13.015-29.011,29.012-29.011s29.011,13.014,29.011,29.011v34.746H359.323z M395,118.422
		c-24.571-5.7-43.944-25.073-49.645-49.645H395V118.422z M79.645,68.777C73.944,93.349,54.571,112.721,30,118.422V68.777H79.645z
		 M30,229.031c24.571,5.7,43.944,25.073,49.645,49.645H30V229.031z M294.114,278.675H110.206
		C103.747,237.522,71.153,204.929,30,198.47v-49.487c41.153-6.459,73.747-39.053,80.206-80.206h204.589
		c6.459,41.153,39.053,73.747,80.206,80.206v36.323c-2.189-0.247-4.411-0.387-6.666-0.387c-32.539,0-59.012,26.472-59.012,59.011
		v34.746h-20.209H294.114z M452.555,413.777H324.114V308.675h128.441V413.777z"/>
</g>
<g>
</g>
<g>
</g>
<g>
</g>
<g>
</g>
<g>
</g>
<g>
</g>
<g>
</g>
<g>
</g>
<g>
</g>
<g>
</g>
<g>
</g>
<g>
</g>
<g>
</g>
<g>
</g>
<g>
</g>
</svg>
