<?xml version="1.0" encoding="iso-8859-1"?>
<!-- Generator: Adobe Illustrator 19.0.0, SVG Export Plug-In . SVG Version: 6.00 Build 0)  -->
<svg version="1.1" id="Capa_1" xmlns="http://www.w3.org/2000/svg" xmlns:xlink="http://www.w3.org/1999/xlink" x="0px" y="0px"
	 viewBox="0 0 512 512" style="enable-background:new 0 0 512 512; fill: #eb7171;" xml:space="preserve">
<g>
	<g>
		<path d="M301,0v84.849C318.98,78.873,322.723,76,331.086,76c16.542,0,30,13.458,30,30s-13.458,30-30,30
			c-8.347,0-12.056-2.857-30.086-8.849V211h45c0,33.084,26.916,60,60,60s60-26.916,60-60h46V0H301z M482,181h-54.771
			c5.926,17.946,8.771,21.692,8.771,30c0,16.542-13.458,30-30,30s-30-13.458-30-30c0-8.292,2.805-11.933,8.771-30H331v-15
			c0.028,0,0.058,0,0.086,0c33.084,0,60-26.916,60-60s-26.916-60-60-60c-0.028,0-0.058,0-0.086,0V30h151V181z"/>
	</g>
</g>
<g>
	<g>
		<path d="M211,46V0H0v211h84.848C78.873,193.02,76,189.277,76,180.914c0-16.542,13.458-30,30-30s30,13.458,30,30
			c0,8.347-2.856,12.056-8.848,30.086H211v-45c33.084,0,60-26.916,60-60S244.084,46,211,46z M211,136
			c-3.439,0-6.804-0.573-10.001-1.703L181,127.228V181h-15c0-0.029,0-0.058,0-0.086c0-33.084-26.916-60-60-60s-60,26.916-60,60
			c0,0.029,0,0.058,0,0.086H30V30h151v54.772l19.999-7.069C204.196,76.573,207.561,76,211,76c16.542,0,30,13.458,30,30
			S227.542,136,211,136z"/>
	</g>
</g>
<g>
	<g>
		<path d="M180.914,376c8.347,0,12.056,2.857,30.086,8.849V301h-45c0-33.084-26.916-60-60-60s-60,26.916-60,60H0v211h211v-84.849
			c-17.98,5.975-21.723,8.849-30.086,8.849c-16.542,0-30-13.458-30-30S164.372,376,180.914,376z M180.914,466
			c0.028,0,0.058,0,0.086,0v16H30V331h54.771C78.845,313.054,76,309.308,76,301c0-16.542,13.458-30,30-30s30,13.458,30,30
			c0,8.292-2.805,11.933-8.771,30H181v15c-0.028,0-0.058,0-0.086,0c-33.084,0-60,26.916-60,60S147.83,466,180.914,466z"/>
	</g>
</g>
<g>
	<g>
		<path d="M427.152,301l7.124,20.028c1.144,3.214,1.724,6.598,1.724,10.059c0,16.542-13.458,30-30,30s-30-13.458-30-30
			c0-3.46,0.58-6.844,1.724-10.059L384.848,301H301v45c-33.084,0-60,26.916-60,60s26.916,60,60,60v46h211V301H427.152z M482,482H331
			v-54.772c-17.946,5.927-21.692,8.772-30,8.772c-16.542,0-30-13.458-30-30s13.458-30,30-30c8.292,0,11.933,2.805,30,8.772V331h15
			c0,0.029,0,0.058,0,0.086c0,33.084,26.916,60,60,60s60-26.916,60-60c0-0.029,0-0.058,0-0.086h16V482z"/>
	</g>
</g>
<g>
</g>
<g>
</g>
<g>
</g>
<g>
</g>
<g>
</g>
<g>
</g>
<g>
</g>
<g>
</g>
<g>
</g>
<g>
</g>
<g>
</g>
<g>
</g>
<g>
</g>
<g>
</g>
<g>
</g>
</svg>
